<svg width="62" height="63" viewBox="0 0 62 63" fill="none" xmlns="http://www.w3.org/2000/svg">
<g clip-path="url(#clip0_1_7792)">
<path d="M6.67334 0.206055H55.3273C58.6503 0.206055 61.3483 2.90405 61.3483 6.22705V23.6871C61.3483 27.0101 58.6503 29.7071 55.3283 29.7071H6.67434C3.35134 29.7071 0.652344 27.0091 0.652344 23.6851V6.22705C0.652344 2.90405 3.35034 0.206055 6.67334 0.206055Z" fill="#49BE57"/>
<path d="M49.3321 14.9561C49.3321 17.1311 47.5681 18.8951 45.3931 18.8951C43.2181 18.8951 41.4531 17.1311 41.4531 14.9561C41.4531 12.7811 43.2171 11.0171 45.3931 11.0171C47.5691 11.0171 49.3321 12.7821 49.3321 14.9561Z" fill="white"/>
<path d="M17.7618 14.9561H12.8008" stroke="white" stroke-width="3" stroke-linecap="round" stroke-linejoin="round"/>
<path d="M31.462 14.9561H26.5" stroke="white" stroke-width="3" stroke-linecap="round" stroke-linejoin="round"/>
<path d="M6.67334 33.499H55.3273C58.6503 33.499 61.3483 36.197 61.3483 39.52V56.98C61.3483 60.303 58.6503 63.001 55.3273 63.001H6.67434C3.35134 63.001 0.652344 60.303 0.652344 56.979V39.521C0.652344 36.198 3.35034 33.499 6.67334 33.499Z" fill="#49BE57"/>
<path d="M49.3321 48.2491C49.3321 50.4241 47.5681 52.1881 45.3931 52.1881C43.2181 52.1881 41.4531 50.4241 41.4531 48.2491C41.4531 46.0741 43.2171 44.3101 45.3931 44.3101C47.5691 44.3101 49.3321 46.0751 49.3321 48.2491Z" fill="white"/>
<path d="M17.7618 48.249H12.8008" stroke="white" stroke-width="3" stroke-linecap="round" stroke-linejoin="round"/>
<path d="M31.462 48.249H26.5" stroke="white" stroke-width="3" stroke-linecap="round" stroke-linejoin="round"/>
</g>
<defs>
<clipPath id="clip0_1_7792">
<rect width="60.695" height="62.794" fill="white" transform="translate(0.652344 0.206055)"/>
</clipPath>
</defs>
</svg>
