<svg width="70" height="70" viewBox="0 0 70 70" fill="none" xmlns="http://www.w3.org/2000/svg">
<g clip-path="url(#clip0_1_7911)">
<path d="M69.4305 17.5618C68.9596 12.9515 67.1945 8.87687 63.7692 5.60838C60.1698 2.17118 55.7646 0.651927 50.9354 0.394077C42.7088 -0.0523863 23.1748 -0.338091 16.314 0.782444C8.47799 2.06055 3.33856 6.6366 1.17174 14.3825C-0.496331 20.3401 -0.163831 47.8027 0.80901 53.6935C2.13662 61.7465 6.89424 66.9107 14.8703 68.9679C20.3931 70.3933 47.5268 70.2102 53.6168 69.2234C61.6716 67.9206 66.8556 63.1854 68.9476 55.2183C70.5489 49.1031 69.9905 23.0777 69.4305 17.5618Z" fill="#49BE57"/>
<path fill-rule="evenodd" clip-rule="evenodd" d="M53.8597 41.2693C54.5985 39.1531 55 36.8703 55 34.5C55 23.1823 45.8177 14 34.5 14C23.1823 14 14 23.1823 14 34.5C14 40.0948 16.2422 45.1771 19.8937 48.8714L40.6927 28.0724L53.8682 41.2479L53.8597 41.2693ZM50.1227 47.7823L40.6842 38.3438L25.9071 53.1208C28.5123 54.3273 31.4165 55 34.4915 55C40.7482 55 46.343 52.2026 50.1014 47.7823H50.1227Z" fill="white"/>
</g>
<defs>
<clipPath id="clip0_1_7911">
<rect width="70" height="70" fill="white"/>
</clipPath>
</defs>
</svg>
