<svg width="60" height="71" viewBox="0 0 60 71" fill="none" xmlns="http://www.w3.org/2000/svg">
<g clip-path="url(#clip0_1_7462)">
<path d="M26.2262 1.53677C20.4902 7.18741 13.024 11.0733 4.69748 12.3326C2.00348 12.7395 0.000976562 15.042 0.000976562 17.7748V25.2014C0.000976562 49.2941 19.2355 64.813 26.902 70.0417C28.7755 71.3197 31.2265 71.3197 33.1007 70.0417C40.7665 64.813 60.0017 49.2941 60.0017 25.2014V17.7748C60.0017 15.042 57.9992 12.7395 55.3052 12.3326C46.9787 11.0733 39.5117 7.18816 33.7765 1.53677C31.6967 -0.512258 28.3082 -0.512258 26.2277 1.53677H26.2262Z" fill="#49BE57"/>
<path d="M27.417 47.0133C27.3863 47.0133 27.3563 47.0125 27.3248 47.0118C26.3085 46.987 25.3455 46.5492 24.657 45.7992L15.342 35.6443C13.9395 34.1158 14.0385 31.7366 15.5625 30.3299C17.0873 28.9233 19.4595 29.0233 20.8613 30.5511L27.549 37.8423L42.1275 23.4381C43.602 21.9804 45.9773 21.9984 47.4308 23.478C48.8843 24.9576 48.8663 27.3391 47.391 28.7962L30.0488 45.9309C29.3468 46.6251 28.401 47.0133 27.417 47.0133Z" fill="white"/>
</g>
<defs>
<clipPath id="clip0_1_7462">
<rect width="60" height="71" fill="white"/>
</clipPath>
</defs>
</svg>
