<svg width="66" height="59" viewBox="0 0 66 59" fill="none" xmlns="http://www.w3.org/2000/svg">
<g clip-path="url(#clip0_1_7852)">
<path d="M33.3185 59C31.5961 59 30.1992 57.6104 30.1992 55.8954V41.3248C30.1992 39.6098 31.5961 38.2202 33.3185 38.2202C35.041 38.2202 36.4379 39.6098 36.4379 41.3248V55.8954C36.4379 57.6104 35.041 59 33.3185 59Z" fill="#49BE57"/>
<path d="M20.707 58.9999C19.6576 58.9999 18.6333 58.4727 18.0443 57.5171C17.1441 56.0555 17.6045 54.143 19.0737 53.2476L31.3695 45.7469C32.8381 44.8503 34.7583 45.3098 35.6592 46.7708C36.5594 48.2331 36.099 50.1449 34.6298 51.0403L22.3347 58.541C21.8262 58.8515 21.2635 58.9992 20.7076 58.9992L20.707 58.9999Z" fill="#49BE57"/>
<path d="M45.2924 58.9999C44.7366 58.9999 44.1738 58.8521 43.6654 58.5416L31.3696 51.0409C29.9004 50.1455 29.44 48.2337 30.3402 46.7714C31.2405 45.3098 33.1614 44.8509 34.6299 45.7475L46.9257 53.2483C48.3949 54.1436 48.8553 56.0555 47.9551 57.5177C47.3668 58.4733 46.3418 59.0005 45.2924 59.0005V58.9999Z" fill="#49BE57"/>
<path d="M57.6473 3.10449H8.35254V40.7392H57.6473V3.10449Z" fill="white"/>
<path d="M62.8807 6.20922H3.11933C1.39684 6.20922 0 4.8196 0 3.10461C0 1.38962 1.39684 0 3.11933 0H62.8807C64.6032 0 66 1.38962 66 3.10461C66 4.8196 64.6032 6.20922 62.8807 6.20922Z" fill="#49BE57"/>
<path d="M29.8956 29.7112H22.4504C20.7279 29.7112 19.3311 28.3215 19.3311 26.6066C19.3311 24.8916 20.7279 23.502 22.4504 23.502H29.8956C31.6181 23.502 33.0149 24.8916 33.0149 26.6066C33.0149 28.3215 31.6181 29.7112 29.8956 29.7112Z" fill="#49BE57"/>
<path d="M43.6732 20.3899H22.3264C20.6039 20.3899 19.207 19.0003 19.207 17.2853C19.207 15.5703 20.6039 14.1807 22.3264 14.1807H43.6732C45.3957 14.1807 46.7925 15.5703 46.7925 17.2853C46.7925 19.0003 45.3957 20.3899 43.6732 20.3899Z" fill="#49BE57"/>
</g>
<defs>
<clipPath id="clip0_1_7852">
<rect width="66" height="59" fill="white"/>
</clipPath>
</defs>
</svg>
