<svg width="58" height="73" viewBox="0 0 58 73" fill="none" xmlns="http://www.w3.org/2000/svg">
<g clip-path="url(#clip0_1_7736)">
<path d="M42.8285 32.9388C40.7613 32.9388 39.0849 31.2538 39.0849 29.1759V17.663C39.0849 12.0736 34.5612 7.52577 28.9999 7.52577C23.4385 7.52577 18.9148 12.0728 18.9148 17.663V29.1759C18.9148 31.2538 17.2384 32.9388 15.1713 32.9388C13.1041 32.9388 11.4277 31.2538 11.4277 29.1759V17.663C11.4285 7.92313 19.3109 0 28.9999 0C38.6889 0 46.572 7.92313 46.572 17.663V29.1759C46.572 31.2538 44.8956 32.9388 42.8285 32.9388Z" fill="white"/>
<path d="M49.8855 28.5537H8.11447C3.63297 28.5537 0 32.2055 0 36.7101V64.8437C0 69.3484 3.63297 73.0002 8.11447 73.0002H49.8855C54.367 73.0002 58 69.3484 58 64.8437V36.7101C58 32.2055 54.367 28.5537 49.8855 28.5537Z" fill="#49BE57"/>
<path d="M28.1185 62.2954C26.0514 62.2954 24.375 60.6104 24.375 58.5325V47.6442C24.375 45.5664 26.0514 43.8813 28.1185 43.8813C30.1857 43.8813 31.8621 45.5664 31.8621 47.6442V58.5325C31.8621 60.6104 30.1857 62.2954 28.1185 62.2954Z" fill="white"/>
<path d="M28.1179 55.5335C23.8406 55.5335 20.3613 51.9444 20.3613 47.5336C20.3613 43.1227 23.8413 39.5337 28.1179 39.5337C32.3945 39.5337 35.8745 43.1227 35.8745 47.5336C35.8745 51.9444 32.3953 55.5335 28.1179 55.5335ZM28.1179 47.0595C28.0371 47.0595 27.8484 47.2205 27.8484 47.5336C27.8484 47.8467 28.0371 48.0077 28.1179 48.0077C28.198 48.0077 28.3875 47.8467 28.3875 47.5336C28.3875 47.2205 28.1988 47.0595 28.1179 47.0595Z" fill="white"/>
</g>
<defs>
<clipPath id="clip0_1_7736">
<rect width="58" height="73" fill="white"/>
</clipPath>
</defs>
</svg>
