<svg width="66" height="59" viewBox="0 0 66 59" fill="none" xmlns="http://www.w3.org/2000/svg">
<g clip-path="url(#clip0_1_7485)">
<path d="M33.319 59C31.5965 59 30.1997 57.6104 30.1997 55.8954V41.3248C30.1997 39.6098 31.5965 38.2202 33.319 38.2202C35.0415 38.2202 36.4384 39.6098 36.4384 41.3248V55.8954C36.4384 57.6104 35.0415 59 33.319 59Z" fill="#7A91B0"/>
<path d="M20.7075 58.9999C19.6581 58.9999 18.6337 58.4727 18.0448 57.5171C17.1446 56.0555 17.605 54.143 19.0742 53.2476L31.37 45.7469C32.8385 44.8503 34.7588 45.3098 35.6597 46.7708C36.5599 48.2331 36.0995 50.1449 34.6303 51.0403L22.3351 58.541C21.8267 58.8515 21.264 58.9992 20.7081 58.9992L20.7075 58.9999Z" fill="#7A91B0"/>
<path d="M45.2924 58.9999C44.7366 58.9999 44.1738 58.8521 43.6654 58.5416L31.3696 51.0409C29.9004 50.1455 29.44 48.2337 30.3402 46.7714C31.2405 45.3098 33.1614 44.8509 34.6299 45.7475L46.9257 53.2483C48.3949 54.1436 48.8553 56.0555 47.9551 57.5177C47.3668 58.4733 46.3418 59.0005 45.2924 59.0005V58.9999Z" fill="#7A91B0"/>
<path d="M57.6473 3.10449H8.35254V40.7392H57.6473V3.10449Z" fill="#C4D3E9"/>
<path d="M62.8807 6.20922H3.11933C1.39684 6.20922 0 4.8196 0 3.10461C0 1.38962 1.39684 0 3.11933 0H62.8807C64.6032 0 66 1.38962 66 3.10461C66 4.8196 64.6032 6.20922 62.8807 6.20922Z" fill="#7A91B0"/>
<path d="M29.8956 29.7112H22.4504C20.7279 29.7112 19.3311 28.3215 19.3311 26.6066C19.3311 24.8916 20.7279 23.502 22.4504 23.502H29.8956C31.6181 23.502 33.0149 24.8916 33.0149 26.6066C33.0149 28.3215 31.6181 29.7112 29.8956 29.7112Z" fill="#7A91B0"/>
<path d="M43.6732 20.3899H22.3264C20.6039 20.3899 19.207 19.0003 19.207 17.2853C19.207 15.5703 20.6039 14.1807 22.3264 14.1807H43.6732C45.3957 14.1807 46.7925 15.5703 46.7925 17.2853C46.7925 19.0003 45.3957 20.3899 43.6732 20.3899Z" fill="#7A91B0"/>
</g>
<defs>
<clipPath id="clip0_1_7485">
<rect width="66" height="59" fill="white"/>
</clipPath>
</defs>
</svg>
